<svg width="55" height="36" viewBox="0 0 55 36" fill="none" xmlns="http://www.w3.org/2000/svg">
<path d="M12.544 19.928H10.816C10.24 19.928 9.872 20.04 9.712 20.264C9.552 20.456 9.472 20.808 9.472 21.32V35H2.992C2.16 35 1.584 34.872 1.264 34.616C0.976 34.328 0.832 33.864 0.832 33.224V18.824C0.832 17.64 1.072 16.776 1.552 16.232C2.032 15.656 2.88 15.368 4.096 15.368H12.544V19.928ZM23.968 35H17.968C16.88 35 16.16 34.824 15.808 34.472C15.488 34.12 15.328 33.384 15.328 32.264V24.776C15.328 23.656 15.488 22.92 15.808 22.568C16.16 22.216 16.88 22.04 17.968 22.04H23.968V35ZM10.24 13.16H4.24C3.152 13.16 2.432 12.984 2.08 12.632C1.76 12.28 1.6 11.544 1.6 10.424V2.984C1.6 1.864 1.76 1.128 2.08 0.775997C2.432 0.423998 3.152 0.247998 4.24 0.247998H10.24V13.16ZM16.912 0.295998H23.392C24.32 0.295998 24.912 0.471998 25.168 0.823999C25.424 1.176 25.552 1.912 25.552 3.032V17.624C25.552 18.424 25.44 19.016 25.216 19.4C24.992 19.752 24.496 19.928 23.728 19.928H14.464V15.368H15.616C16.192 15.368 16.544 15.272 16.672 15.08C16.832 14.856 16.912 14.488 16.912 13.976V0.295998ZM54.4424 17.576L54.4904 25.688C54.4904 29.496 54.0104 32.008 53.0504 33.224C52.0904 34.408 50.3464 35 47.8184 35H40.7624V30.44H44.3144C45.1144 30.44 45.6424 30.344 45.8984 30.152C46.1544 29.96 46.2824 29.592 46.2824 29.048V6.296C46.2824 5.72 46.1544 5.336 45.8984 5.144C45.6424 4.952 45.1144 4.856 44.3144 4.856H40.7624V0.295998H48.2984C50.6344 0.295998 52.2504 0.839998 53.1464 1.928C54.0744 2.984 54.5384 5.064 54.5384 8.168L54.4424 17.576ZM39.3224 35.048H34.2824C33.2264 35.048 32.5224 34.872 32.1704 34.52C31.8184 34.136 31.6424 33.4 31.6424 32.312V3.032C31.6424 1.944 31.8184 1.224 32.1704 0.871999C32.5224 0.487998 33.2264 0.295998 34.2824 0.295998H39.3224V35.048Z" fill="white"/>
</svg>
