<svg 
 xmlns="http://www.w3.org/2000/svg"
 xmlns:xlink="http://www.w3.org/1999/xlink"
 width="17.921cm" height="14.252cm">
<path fill-rule="evenodd"  fill="rgb(0,0,0)"
 d="M507.000,109.000 L505.000,139.000 L502.000,169.000 L497.000,208.000 L483.000,261.000 L468.000,295.000 L444.000,333.000 L413.000,365.000 L390.000,378.000 L366.000,388.000 L345.000,396.000 L314.000,401.000 L282.000,404.000 L254.000,404.000 L226.000,404.000 L194.000,401.000 L163.000,396.000 L142.000,388.000 L118.000,378.000 L95.000,365.000 L64.000,333.000 L40.000,295.000 L25.000,261.000 L11.000,208.000 L6.000,169.000 L3.000,139.000 L1.000,109.000 L-0.000,82.000 L-0.000,64.000 L1.000,51.000 L98.000,25.000 L153.000,13.000 L192.000,6.000 C192.000,6.000 211.260,3.138 224.000,2.000 C239.064,0.655 254.000,1.000 254.000,1.000 C254.000,1.000 268.936,0.655 284.000,2.000 C296.740,3.138 316.000,6.000 316.000,6.000 L355.000,13.000 L410.000,25.000 L507.000,51.000 L508.000,64.000 L508.000,82.000 L507.000,109.000 Z"/>
</svg>