<svg xmlns="http://www.w3.org/2000/svg" viewBox="0 0 156.18 56.05"><defs><style>.cls-1{fill:#fff;}</style></defs><title>Layer 3</title><g id="Layer_2" data-name="Layer 2"><g id="Layer_3" data-name="Layer 3"><path class="cls-1" d="M0,16.12c.12,15.27,13.65,29,26.84,35,13.6,6.15,31.86,7.27,45.15-.44,7.21-4.17,8.28-9.87,10.81-17.08a19.74,19.74,0,0,1,1.1-2.48c-.07-.19-3.76.5-3.76.31,0,0,1.42,1.63,1.5,1.74,1.46,2,2.51,4.23,3.93,6.23,3.63,5.11,8.58,10,14.81,11.59,7.15,1.83,14.64-.31,21.05-3.48A61.9,61.9,0,0,0,140.78,32a123,123,0,0,0,8.65-11c2.54-3.83,3-8.6,5.66-12.28,4.45-6.26-5.87-12.21-10.28-6-1.94,2.71-2.61,5.77-3.8,8.83-1.36,3.5-4,6.47-6.39,9.35-4.11,5-8.46,9.7-13.91,13.31-4.71,3.11-11.26,6.78-17.16,5.35-4.45-1.07-7.48-5.69-9.47-8.92-2.23-3.63-4.6-7.81-8.58-9.72-5.32-2.56-10.19.74-12.58,5.54-3,6-2,12-8.94,15C57.9,44,50.67,44.51,44.14,43.74a39.72,39.72,0,0,1-20.63-8.6C18,30.52,12,23.66,11.91,16.12s-12-7.68-11.91,0Z"/></g></g></svg>