<svg xmlns="http://www.w3.org/2000/svg" viewBox="0 0 270.42 217.82"><defs><style>.cls-1{fill:#fff;}</style></defs><title>Layer 5</title><g id="Layer_2" data-name="Layer 2"><g id="Layer_5" data-name="Layer 5"><path class="cls-1" d="M69.64,10.21c25.56,26.26,56.78,47.41,88.2,66,33.07,19.59,68.74,34.17,103.5,50.39,6.9,3.23,13-7,6-10.28-34.2-16-69.27-30.32-101.89-49.45-31.18-18.27-62.1-39.12-87.4-65.11-5.35-5.5-13.77,2.92-8.42,8.42Z"/><path class="cls-1" d="M145.27,141.23c14.69,5.65,29.4,11.25,44.89,14.3,16.45,3.24,33.11,5.22,49.6,8.2,7.49,1.36,10.71-10.11,3.17-11.48-16.49-3-33.16-5-49.6-8.2-15.49-3.05-30.21-8.65-44.9-14.3-7.16-2.75-10.25,8.76-3.16,11.48Z"/><path class="cls-1" d="M4.29,211.33c37,7.54,75.82,7.53,113.33,4.88,37.8-2.68,75-10.51,112.29-16.57,7.55-1.22,4.34-12.7-3.16-11.48-36.29,5.89-72.39,13.54-109.13,16.14-36.39,2.58-74.29,2.87-110.17-4.45-7.48-1.52-10.68,10-3.16,11.48Z"/></g></g></svg>